<svg id="ecqVxzD46Cd1" xmlns="http://www.w3.org/2000/svg" xmlns:xlink="http://www.w3.org/1999/xlink" viewBox="0 0 240 240" shape-rendering="geometricPrecision" text-rendering="geometricPrecision" style="background-color:#fcdcaf"><g><rect width="7.5" height="30" rx="0" ry="0" transform="matrix(8.000001 0 0 1 90.000001 180)" fill="#e2887a" stroke-width="0"/><rect width="30" height="11.971642" rx="0" ry="0" transform="matrix(2 0 0 0.31324 90 208.125002)" fill="rgba(0,0,0,0.1)" stroke-width="0"/></g><g><rect width="7.5" height="30" rx="0" ry="0" transform="matrix(4 0 0 1 60 120)" fill="#28722a" stroke-width="0"/><rect width="7.5" height="30" rx="0" ry="0" transform="matrix(4 0 0 1 180 120)" fill="#fff" stroke-width="0"/><rect width="7.5" height="30" rx="0" ry="0" transform="matrix(4 0 0 1 150 120)" fill="#28722a" stroke-width="0"/><rect width="7.5" height="30" rx="0" ry="0" transform="matrix(4 0 0 1 30 120)" fill="#fff" stroke-width="0"/></g><g><path d="M0,120l90.000005.000001-.000001-30.000002h29.999994L120.000003,60l59.999994-.000001-.000001,29.999999h29.999999l-.000001,30h29.999999l-.000001-120h-239.999997L0,120Z" transform="translate(.000009 0.000004)" fill="#efa234" stroke-width="0.5"/><g transform="translate(0 0.000001)"><rect width="30" height="11.971642" rx="0" ry="0" transform="matrix(3 0 0 0.62648 0 116.250003)" fill="rgba(0,0,0,0.1)" stroke-width="0"/><rect width="30" height="11.971642" rx="0" ry="0" transform="matrix(1 0 0 0.62648 90.000005 86.250003)" fill="rgba(0,0,0,0.1)" stroke-width="0"/><rect width="30" height="11.971642" rx="0" ry="0" transform="matrix(1 0 0 0.62648 180 86.250003)" fill="rgba(0,0,0,0.1)" stroke-width="0"/><rect width="30" height="11.971642" rx="0" ry="0" transform="matrix(1 0 0 0.62648 210 116.250003)" fill="rgba(0,0,0,0.1)" stroke-width="0"/><rect width="30" height="11.971642" rx="0" ry="0" transform="matrix(2 0 0 0.62648 120 56.250003)" fill="rgba(0,0,0,0.1)" stroke-width="0"/></g></g><rect width="60" height="30" rx="0" ry="0" transform="translate(30 26.250004)" fill="rgba(0,0,0,0.1)" stroke-width="0"/><rect width="30" height="30" rx="0" ry="0" transform="translate(180 0.000002)" fill="rgba(0,0,0,0.1)" stroke-width="0"/></svg>
