<svg id="eQK5lJx7hDH1" xmlns="http://www.w3.org/2000/svg" xmlns:xlink="http://www.w3.org/1999/xlink" viewBox="0 0 240 240" shape-rendering="geometricPrecision" text-rendering="geometricPrecision"><g transform="translate(-.00002-17.500021)"><rect width="30" height="30" rx="0" ry="0" transform="matrix(1 0 0 6.833334 180 34.999978)" fill="#c3ada1" stroke-width="0"/><rect width="80" height="40" rx="0" ry="0" transform="matrix(.6875 0 0 1 180 185)" fill="#fbf2e1" stroke-width="0"/><rect width="25" height="40" rx="0" ry="0" transform="translate(155 185)" fill="#c3ada1" stroke-width="0"/><rect width="15" height="185" rx="0" ry="0" transform="matrix(1 0 0 0.810811 180 34.999949)" fill="rgba(0,0,0,0.25)" stroke-width="0"/><rect width="15" height="15" rx="0" ry="0" transform="translate(180 225)" fill="rgba(0,0,0,0.25)" stroke-width="0"/></g><g transform="translate(-5.00002 17.499985)"><rect width="30" height="30" rx="0" ry="0" transform="matrix(1 0 0 6.833333 105 0)" fill="#c3ada1" stroke-width="0"/><rect width="80" height="40" rx="0" ry="0" transform="matrix(.6875 0 0 1 105 15)" fill="#fbf2e1" stroke-width="0"/><rect width="25" height="40" rx="0" ry="0" transform="translate(80 15)" fill="#c3ada1" stroke-width="0"/><rect width="15" height="185" rx="0" ry="0" transform="matrix(1 0 0 0.810811 105 55.000002)" fill="rgba(0,0,0,0.25)" stroke-width="0"/><rect width="15" height="15" rx="0" ry="0" transform="translate(120 190)" fill="rgba(0,0,0,0.25)" stroke-width="0"/><rect width="15" height="15" rx="0" ry="0" transform="translate(120 55)" fill="rgba(0,0,0,0.25)" stroke-width="0"/><rect width="15" height="15" rx="0" ry="0" transform="translate(105 0)" fill="rgba(0,0,0,0.25)" stroke-width="0"/></g><g transform="translate(-.00001-17.499981)"><rect width="30" height="30" rx="0" ry="0" transform="matrix(1 0 0 6.833334 30 34.999994)" fill="#c3ada1" stroke-width="0"/><rect width="80" height="40" rx="0" ry="0" transform="matrix(.6875 0 0 1 30 185)" fill="#fbf2e1" stroke-width="0"/><rect width="15" height="185" rx="0" ry="0" transform="matrix(1 0 0 0.810811 30 34.999965)" fill="rgba(0,0,0,0.25)" stroke-width="0"/><rect width="15" height="15" rx="0" ry="0" transform="translate(30 225)" fill="rgba(0,0,0,0.25)" stroke-width="0"/><rect width="25" height="40" rx="0" ry="0" transform="translate(5 185)" fill="#c3ada1" stroke-width="0"/></g><rect width="30" height="7.5" rx="0" ry="0" transform="matrix(2.666666 0 0 1 154.99998 200.000019)" fill="rgba(0,0,0,0.1)" stroke-width="0"/><rect width="30" height="7.5" rx="0" ry="0" transform="matrix(2.666666 0 0 1 5 200.000019)" fill="rgba(0,0,0,0.1)" stroke-width="0"/><rect width="30" height="7.5" rx="0" ry="0" transform="matrix(2.666666 0 0 1 75.00002 64.999987)" fill="rgba(0,0,0,0.1)" stroke-width="0"/></svg>
