<svg id="exnyRdoCvSm1" xmlns="http://www.w3.org/2000/svg" xmlns:xlink="http://www.w3.org/1999/xlink" viewBox="0 0 240 240" shape-rendering="geometricPrecision" text-rendering="geometricPrecision"><g transform="translate(.000004-10)"><rect width="60" height="60" rx="0" ry="0" transform="translate(90.000001 10)" fill="#fff" stroke-width="0"/><path d="M90.000001,55v15L150,70l-.000001-60h-15l-.000001,45h-44.999997Z" transform="translate(.000003 0)" fill="rgba(0,0,0,0.2)" stroke-width="0.5"/></g><g transform="translate(.000008 10)"><rect width="60" height="60" rx="0" ry="0" transform="translate(90 170)" fill="#fff" stroke-width="0"/><path d="M90.000001,55v15L150,70l-.000001-60h-15l-.000001,45h-44.999997Z" transform="translate(0 160)" fill="rgba(0,0,0,0.2)" stroke-width="0.5"/></g><g><rect width="60" height="60" rx="0" ry="0" transform="translate(90.000001 90)" fill="#fff" stroke-width="0"/><path d="M90.000001,55v15L150,70l-.000001-60h-15l-.000001,45h-44.999997Z" transform="translate(.000003 80)" fill="rgba(0,0,0,0.2)" stroke-width="0.5"/></g></svg>
