<svg id="e9m1dAVtfqr1" xmlns="http://www.w3.org/2000/svg" xmlns:xlink="http://www.w3.org/1999/xlink" viewBox="0 0 240 240" shape-rendering="geometricPrecision" text-rendering="geometricPrecision"><g><rect width="30" height="30" rx="0" ry="0" fill="#5ca028" stroke-width="0"/><rect width="30" height="30" rx="0" ry="0" transform="translate(0 60)" fill="#6fb03d" stroke-width="0"/><rect width="30" height="30" rx="0" ry="0" transform="translate(0 30)" fill="#5ca028" stroke-width="0"/><rect width="30" height="30" rx="0" ry="0" transform="translate(150 0)" fill="#8bcd5d" stroke-width="0"/><rect width="30" height="30" rx="0" ry="0" transform="translate(150 60)" fill="#8bcd5d" stroke-width="0"/><rect width="30" height="30" rx="0" ry="0" transform="translate(150 30)" fill="#5ca028" stroke-width="0"/><rect width="30" height="30" rx="0" ry="0" transform="translate(180 0)" fill="#79ba48" stroke-width="0"/><rect width="30" height="30" rx="0" ry="0" transform="translate(180 30)" fill="#79ba48" stroke-width="0"/><rect width="30" height="30" rx="0" ry="0" transform="translate(210 0)" fill="#6fb03d" stroke-width="0"/><rect width="30" height="30" rx="0" ry="0" transform="translate(210 60)" fill="#5ca028" stroke-width="0"/><rect width="30" height="30" rx="0" ry="0" transform="translate(210 30)" fill="#5ca028" stroke-width="0"/><rect width="30" height="30" rx="0" ry="0" transform="translate(120 0)" fill="#5ca028" stroke-width="0"/><rect width="30" height="30" rx="0" ry="0" transform="translate(120 60)" fill="#79ba48" stroke-width="0"/><rect width="30" height="30" rx="0" ry="0" transform="translate(120 30)" fill="#a6d674" stroke-width="0"/><rect width="30" height="30" rx="0" ry="0" transform="translate(120 90)" fill="#5ca028" stroke-width="0"/><rect width="30" height="30" rx="0" ry="0" transform="translate(90 0)" fill="#6fb03d" stroke-width="0"/><rect width="30" height="30" rx="0" ry="0" transform="translate(90 60)" fill="#6fb03d" stroke-width="0"/><rect width="30" height="30" rx="0" ry="0" transform="translate(90 30)" fill="#8bcd5d" stroke-width="0"/><rect width="30" height="30" rx="0" ry="0" transform="translate(60 0)" fill="#6fb03d" stroke-width="0"/><rect width="30" height="30" rx="0" ry="0" transform="translate(60 30)" fill="#79ba48" stroke-width="0"/><rect width="30" height="30" rx="0" ry="0" transform="translate(30 0)" fill="#79ba48" stroke-width="0"/><rect width="30" height="30" rx="0" ry="0" transform="translate(30 60)" fill="#8bcd5d" stroke-width="0"/><rect width="30" height="30" rx="0" ry="0" transform="translate(30 30)" fill="#6fb03d" stroke-width="0"/><rect width="30" height="30" rx="0" ry="0" transform="translate(30 90)" fill="#79ba48" stroke-width="0"/></g><g><rect width="30" height="30" rx="0" ry="0" transform="translate(0 120)" fill="#a2754e" stroke-width="0"/><rect width="30" height="30" rx="0" ry="0" transform="translate(0 180)" fill="#805838" stroke-width="0"/><rect width="30" height="30" rx="0" ry="0" transform="translate(0 90)" fill="#805838" stroke-width="0"/><rect width="30" height="30" rx="0" ry="0" transform="translate(0 150)" fill="#805838" stroke-width="0"/><rect width="30" height="30" rx="0" ry="0" transform="translate(0 210)" fill="#9c7b5f" stroke-width="0"/><rect width="30" height="30" rx="0" ry="0" transform="translate(150 120)" fill="#a2754e" stroke-width="0"/><rect width="30" height="30" rx="0" ry="0" transform="translate(150 180)" fill="#8f6948" stroke-width="0"/><rect width="30" height="30" rx="0" ry="0" transform="translate(150 90)" fill="#805838" stroke-width="0"/><rect width="30" height="30" rx="0" ry="0" transform="translate(150 150)" fill="#c69065" stroke-width="0"/><rect width="30" height="30" rx="0" ry="0" transform="translate(150 210)" fill="#a2754e" stroke-width="0"/><rect width="30" height="30" rx="0" ry="0" transform="translate(180 60)" fill="#5a381e" stroke-width="0"/><rect width="30" height="30" rx="0" ry="0" transform="translate(180 120)" fill="#5a381e" stroke-width="0"/><rect width="30" height="30" rx="0" ry="0" transform="translate(180 180)" fill="#5a381e" stroke-width="0"/><rect width="30" height="30" rx="0" ry="0" transform="translate(180 90)" fill="#a2754e" stroke-width="0"/><rect width="30" height="30" rx="0" ry="0" transform="translate(180 150)" fill="#a2754e" stroke-width="0"/><rect width="30" height="30" rx="0" ry="0" transform="translate(180 210)" fill="#8e6038" stroke-width="0"/><rect width="30" height="30" rx="0" ry="0" transform="translate(210 120)" fill="#a2754e" stroke-width="0"/><rect width="30" height="30" rx="0" ry="0" transform="translate(210 180)" fill="#8a6544" stroke-width="0"/><rect width="30" height="30" rx="0" ry="0" transform="translate(210 90)" fill="#805838" stroke-width="0"/><rect width="30" height="30" rx="0" ry="0" transform="translate(210 150)" fill="#5a381e" stroke-width="0"/><rect width="30" height="30" rx="0" ry="0" transform="translate(210 210)" fill="#c69065" stroke-width="0"/><rect width="30" height="30" rx="0" ry="0" transform="translate(120 120)" fill="#585858" stroke-width="0"/><rect width="30" height="30" rx="0" ry="0" transform="translate(120 180)" fill="#c69065" stroke-width="0"/><rect width="30" height="30" rx="0" ry="0" transform="translate(120 150)" fill="#a2754e" stroke-width="0"/><rect width="30" height="30" rx="0" ry="0" transform="translate(120 210)" fill="#a2754e" stroke-width="0"/><rect width="30" height="30" rx="0" ry="0" transform="translate(90 120)" fill="#a2754e" stroke-width="0"/><rect width="30" height="30" rx="0" ry="0" transform="translate(90 180)" fill="#5a381e" stroke-width="0"/><rect width="30" height="30" rx="0" ry="0" transform="translate(90 90)" fill="#5a381e" stroke-width="0"/><rect width="30" height="30" rx="0" ry="0" transform="translate(90 150)" fill="#a2754e" stroke-width="0"/><rect width="30" height="30" rx="0" ry="0" transform="translate(90 210)" fill="#a2754e" stroke-width="0"/><rect width="30" height="30" rx="0" ry="0" transform="translate(60 60)" fill="#5a381e" stroke-width="0"/><rect width="30" height="30" rx="0" ry="0" transform="translate(60 120)" fill="#8a6544" stroke-width="0"/><rect width="30" height="30" rx="0" ry="0" transform="translate(60 180)" fill="#9c7b5f" stroke-width="0"/><rect width="30" height="30" rx="0" ry="0" transform="translate(60 90)" fill="#5c5c5c" stroke-width="0"/><rect width="30" height="30" rx="0" ry="0" transform="translate(60 150)" fill="#5a381e" stroke-width="0"/><rect width="30" height="30" rx="0" ry="0" transform="translate(60 210)" fill="#a2754e" stroke-width="0"/><rect width="30" height="30" rx="0" ry="0" transform="translate(30 120)" fill="#805838" stroke-width="0"/><rect width="30" height="30" rx="0" ry="0" transform="translate(30 180)" fill="#a2754e" stroke-width="0"/><rect width="30" height="30" rx="0" ry="0" transform="translate(30 150)" fill="#c69065" stroke-width="0"/><rect width="30" height="30" rx="0" ry="0" transform="translate(30 210)" fill="#805838" stroke-width="0"/></g><g><rect width="30" height="30" rx="0" ry="0" transform="translate(0 120)" fill="#a2754e" stroke-width="0"/><rect width="30" height="30" rx="0" ry="0" transform="translate(0 180)" fill="#805838" stroke-width="0"/><rect width="30" height="30" rx="0" ry="0" transform="translate(0 90)" fill="#805838" stroke-width="0"/><rect width="30" height="30" rx="0" ry="0" transform="translate(0 150)" fill="#805838" stroke-width="0"/><rect width="30" height="30" rx="0" ry="0" transform="translate(0 210)" fill="#9c7b5f" stroke-width="0"/><rect width="30" height="30" rx="0" ry="0" transform="translate(150 120)" fill="#a2754e" stroke-width="0"/><rect width="30" height="30" rx="0" ry="0" transform="translate(150 180)" fill="#8f6948" stroke-width="0"/><rect width="30" height="30" rx="0" ry="0" transform="translate(150 90)" fill="#805838" stroke-width="0"/><rect width="30" height="30" rx="0" ry="0" transform="translate(150 150)" fill="#c69065" stroke-width="0"/><rect width="30" height="30" rx="0" ry="0" transform="translate(150 210)" fill="#a2754e" stroke-width="0"/><rect width="30" height="30" rx="0" ry="0" transform="translate(180 60)" fill="#5a381e" stroke-width="0"/><rect width="30" height="30" rx="0" ry="0" transform="translate(180 120)" fill="#5a381e" stroke-width="0"/><rect width="30" height="30" rx="0" ry="0" transform="translate(180 180)" fill="#5a381e" stroke-width="0"/><rect width="30" height="30" rx="0" ry="0" transform="translate(180 90)" fill="#a2754e" stroke-width="0"/><rect width="30" height="30" rx="0" ry="0" transform="translate(180 150)" fill="#a2754e" stroke-width="0"/><rect width="30" height="30" rx="0" ry="0" transform="translate(180 210)" fill="#8e6038" stroke-width="0"/><rect width="30" height="30" rx="0" ry="0" transform="translate(210 120)" fill="#a2754e" stroke-width="0"/><rect width="30" height="30" rx="0" ry="0" transform="translate(210 180)" fill="#8a6544" stroke-width="0"/><rect width="30" height="30" rx="0" ry="0" transform="translate(210 90)" fill="#805838" stroke-width="0"/><rect width="30" height="30" rx="0" ry="0" transform="translate(210 150)" fill="#5a381e" stroke-width="0"/><rect width="30" height="30" rx="0" ry="0" transform="translate(210 210)" fill="#c69065" stroke-width="0"/><rect width="30" height="30" rx="0" ry="0" transform="translate(120 120)" fill="#585858" stroke-width="0"/><rect width="30" height="30" rx="0" ry="0" transform="translate(120 180)" fill="#c69065" stroke-width="0"/><rect width="30" height="30" rx="0" ry="0" transform="translate(120 150)" fill="#a2754e" stroke-width="0"/><rect width="30" height="30" rx="0" ry="0" transform="translate(120 210)" fill="#a2754e" stroke-width="0"/><rect width="30" height="30" rx="0" ry="0" transform="translate(90 120)" fill="#a2754e" stroke-width="0"/><rect width="30" height="30" rx="0" ry="0" transform="translate(90 180)" fill="#5a381e" stroke-width="0"/><rect width="30" height="30" rx="0" ry="0" transform="translate(90 90)" fill="#5a381e" stroke-width="0"/><rect width="30" height="30" rx="0" ry="0" transform="translate(90 150)" fill="#a2754e" stroke-width="0"/><rect width="30" height="30" rx="0" ry="0" transform="translate(90 210)" fill="#a2754e" stroke-width="0"/><rect width="30" height="30" rx="0" ry="0" transform="translate(60 60)" fill="#5a381e" stroke-width="0"/><rect width="30" height="30" rx="0" ry="0" transform="translate(60 120)" fill="#8a6544" stroke-width="0"/><rect width="30" height="30" rx="0" ry="0" transform="translate(60 180)" fill="#9c7b5f" stroke-width="0"/><rect width="30" height="30" rx="0" ry="0" transform="translate(60 90)" fill="#5c5c5c" stroke-width="0"/><rect width="30" height="30" rx="0" ry="0" transform="translate(60 150)" fill="#5a381e" stroke-width="0"/><rect width="30" height="30" rx="0" ry="0" transform="translate(60 210)" fill="#a2754e" stroke-width="0"/><rect width="30" height="30" rx="0" ry="0" transform="translate(30 120)" fill="#805838" stroke-width="0"/><rect width="30" height="30" rx="0" ry="0" transform="translate(30 180)" fill="#a2754e" stroke-width="0"/><rect width="30" height="30" rx="0" ry="0" transform="translate(30 150)" fill="#c69065" stroke-width="0"/><rect width="30" height="30" rx="0" ry="0" transform="translate(30 210)" fill="#805838" stroke-width="0"/></g><rect width="30" height="5" rx="0" ry="0" transform="translate(30 147.5)" fill="rgba(0,0,0,0.2)" stroke-width="0"/><rect width="30" height="5" rx="0" ry="0" transform="translate(90 207.5)" fill="rgba(0,0,0,0.2)" stroke-width="0"/><rect width="30" height="5" rx="0" ry="0" transform="translate(60 57.5)" fill="rgba(0,0,0,0.2)" stroke-width="0"/><rect width="30" height="5" rx="0" ry="0" transform="translate(90 87.5)" fill="rgba(0,0,0,0.2)" stroke-width="0"/><rect width="30" height="5" rx="0" ry="0" transform="translate(120 117.5)" fill="rgba(0,0,0,0.2)" stroke-width="0"/><rect width="30" height="5" rx="0" ry="0" transform="translate(150 87.5)" fill="rgba(0,0,0,0.2)" stroke-width="0"/><rect width="30" height="5" rx="0" ry="0" transform="translate(180 57.5)" fill="rgba(0,0,0,0.2)" stroke-width="0"/><rect width="30" height="5" rx="0" ry="0" transform="translate(210 87.5)" fill="rgba(0,0,0,0.2)" stroke-width="0"/><rect width="30" height="5" rx="0" ry="0" transform="translate(0 87.5)" fill="rgba(0,0,0,0.2)" stroke-width="0"/></svg>
