<svg id="eJnRTpC2VA01" xmlns="http://www.w3.org/2000/svg" xmlns:xlink="http://www.w3.org/1999/xlink" viewBox="0 0 420 420" shape-rendering="geometricPrecision" text-rendering="geometricPrecision"><g transform="translate(0-.000008)"><rect width="239.99992" height="240.000012" rx="0" ry="0" transform="matrix(1 0 0 1.125 90.000074 119.999991)" fill="#494848" stroke-width="0"/><rect width="30" height="302.607722" rx="0" ry="0" transform="matrix(1 0 0 0.793106 60 149.999999)" fill="#343438" stroke-width="0"/><rect width="30" height="302.607722" rx="0" ry="0" transform="matrix(1 0 0 0.793107 330 149.999999)" fill="#343438" stroke-width="0"/><rect width="240" height="30" rx="0" ry="0" transform="translate(90.000047 390)" fill="#343438" stroke-width="0"/><rect width="8.855547" height="21.366137" rx="0" ry="0" transform="matrix(20.326239 0 0 2.808183 120.000018 149.999999)" fill="#2d2d32" stroke-width="0"/><rect width="179.999965" height="30.000012" rx="0" ry="0" transform="translate(120.000038 239.999988)" fill="#2d2d32" stroke-width="0"/><rect width="179.999965" height="30.000012" rx="0" ry="0" transform="matrix(.119614 0 0 1 134.642225 239.999981)" fill="#2d2d32" stroke-width="0"/><rect width="29.999991" height="158.282111" rx="0" ry="0" transform="matrix(1.999997 0 0 0.189535 120.000173 361.569738)" fill="#3f3e42" stroke-width="0"/><rect width="30" height="30" rx="0" ry="0" transform="translate(90.000074 361.569737)" fill="#343438" stroke-width="0"/><rect width="30.000018" height="59.999977" rx="0" ry="0" transform="translate(89.999964 210.000023)" fill="#3f3e42" stroke-width="0"/><rect width="30.000018" height="59.999977" rx="0" ry="0" transform="matrix(1 0 0 0.50654 300.000003 120.00005)" fill="#3f3e42" stroke-width="0"/><rect width="29.99998" height="28.430261" rx="0" ry="0" transform="matrix(2.999992 0 0 2.138034 150.00021 300.784871)" fill="rgba(255,255,255,0.1)" stroke-width="0"/><rect width="29.99998" height="28.430261" rx="0" ry="0" transform="matrix(2.000002 0 0 1.069017 90.000193 300.784874)" fill="rgba(255,255,255,0.1)" stroke-width="0"/><rect width="29.99998" height="28.430261" rx="0" ry="0" transform="matrix(1 0 0 1.069017 239.99998 210.000024)" fill="rgba(255,255,255,0.1)" stroke-width="0"/><rect width="29.99998" height="28.430261" rx="0" ry="0" transform="matrix(1 0 0 1.069017 180.00001 119.607555)" fill="rgba(255,255,255,0.1)" stroke-width="0"/><rect width="29.99998" height="28.430261" rx="0" ry="0" transform="matrix(1 0 0 1.069017 120.000173 210.000023)" fill="rgba(155,197,246,0.1)" stroke-width="0"/><rect width="29.99998" height="28.430261" rx="0" ry="0" transform="matrix(1 0 0 1.069017 210.000049 210.000024)" fill="rgba(155,197,246,0.1)" stroke-width="0"/><rect width="29.99998" height="28.430261" rx="0" ry="0" transform="matrix(1.999996 0 0 1.069017 150.000209 210.000023)" fill="rgba(185,217,255,0.32)" stroke-width="0"/><rect width="29.99998" height="28.430261" rx="0" ry="0" transform="matrix(1.999996 0 0 1.069017 210.000182 119.999998)" fill="rgba(185,217,255,0.32)" stroke-width="0"/></g><g><rect width="60" height="30" rx="0" ry="0" transform="translate(0 240)" fill="#3f3e42" stroke-width="0"/><rect width="30" height="60" rx="0" ry="0" transform="translate(30 180)" fill="#733f31" stroke-width="0"/><rect width="30" height="30" rx="0" ry="0" transform="translate(0 210)" fill="#c66851" stroke-width="0"/><rect width="30" height="30" rx="0" ry="0" transform="translate(0 180)" fill="#9b5643" stroke-width="0"/></g><g><rect width="60" height="30" rx="0" ry="0" transform="translate(360 240)" fill="#3f3e42" stroke-width="0"/><rect width="30" height="60" rx="0" ry="0" transform="translate(360 179.999981)" fill="#733f31" stroke-width="0"/><rect width="30" height="30" rx="0" ry="0" transform="translate(390 180)" fill="#9b5643" stroke-width="0"/><rect width="30" height="30" rx="0" ry="0" transform="translate(390 209.999981)" fill="#c66851" stroke-width="0"/></g><g transform="translate(0 0.000001)"><rect width="90" height="30" rx="0" ry="0" transform="translate(150 180)" fill="#281e0b" stroke-width="0"/><rect width="29.999982" height="30.000014" rx="0" ry="0" transform="translate(120.000018 149.999997)" fill="#281e0b" stroke-width="0"/><rect width="29.999982" height="30.000014" rx="0" ry="0" transform="translate(90 119.999997)" fill="#281e0b" stroke-width="0"/><rect width="29.999982" height="30.000014" rx="0" ry="0" transform="translate(60 89.999983)" fill="#281e0b" stroke-width="0"/><rect width="29.999982" height="30.000014" rx="0" ry="0" transform="translate(59.999982 59.999969)" fill="#896727" stroke-width="0"/><rect width="29.999982" height="30.000014" rx="0" ry="0" transform="translate(119.999982 119.999983)" fill="#896727" stroke-width="0"/><rect width="29.999982" height="30.000014" rx="0" ry="0" transform="translate(150.000038 119.999983)" fill="#493615" stroke-width="0"/><rect width="29.999982" height="30.000014" rx="0" ry="0" transform="translate(180.000065 149.999986)" fill="#493615" stroke-width="0"/><rect width="29.999982" height="30.000014" rx="0" ry="0" transform="translate(150.000038 150.000011)" fill="#684e1e" stroke-width="0"/><rect width="60" height="30.000014" rx="0" ry="0" transform="translate(90.000056 89.999983)" fill="#684e1e" stroke-width="0"/><path d="M59.999982,59.999984l.000018,30h-30v-60h59.999964v29.999986l30.000018.000014v30h-29.999789l-.000229-30h-29.999982Z" fill="#493615" stroke-width="0.84"/></g><path d="M210.000047,361.569819h59.999845l.000119-28.430235h29.999971l-.000001-93.139572l30.00001-.000025v150.000011l-119.999947-.000001.000003-28.430178Z" transform="translate(.000005 0.000004)" fill="#3f3e42" stroke-width="0.84"/></svg>
