<svg id="ecJUbDSRdfE1" xmlns="http://www.w3.org/2000/svg" xmlns:xlink="http://www.w3.org/1999/xlink" viewBox="0 0 240 240" shape-rendering="geometricPrecision" text-rendering="geometricPrecision"><g transform="translate(-.000348 0.000075)"><rect width="25" height="25" rx="0" ry="0" transform="matrix(9.599986 0 0 2.400001 0.000349 159.999903)" fill="#ececec" stroke-width="0"/><rect width="25" height="25" rx="0" ry="0" transform="matrix(7.999961 0 0 0.800001 20.000692 219.999902)" fill="#ececec" stroke-width="0"/><rect width="25" height="25" rx="0" ry="0" transform="matrix(7.999986 0 0 7.199994 39.999544-19.999936)" fill="#ececec" stroke-width="0"/></g><g transform="translate(.000001 0)"><rect width="20" height="20" rx="0" ry="0" transform="translate(20.000349 200)" fill="rgba(0,0,0,0.2)" stroke-width="0"/><rect width="20" height="20" rx="0" ry="0" transform="translate(219.998845 200)" fill="rgba(0,0,0,0.2)" stroke-width="0"/><rect width="20" height="25" rx="0" ry="0" transform="matrix(1 0 0 2.400001 0.000349 159.999968)" fill="rgba(0,0,0,0.2)" stroke-width="0"/><rect width="25" height="20" rx="0" ry="0" transform="matrix(7.99994 0 0 1 20.000345 220)" fill="rgba(0,0,0,0.2)" stroke-width="0"/><rect width="21.281516" height="20" rx="0" ry="0" transform="matrix(2.819348 0 0 1 140.000002 199.999989)" fill="rgba(0,0,0,0.2)" stroke-width="0"/></g><rect width="60" height="40" rx="0" ry="0" transform="translate(20.00035 159.999989)" fill="rgba(0,0,0,0.4)" stroke-width="0"/><rect width="20" height="20" rx="0" ry="0" transform="translate(40.00035 200)" fill="rgba(0,0,0,0.4)" stroke-width="0"/><rect width="20" height="130" rx="0" ry="0" transform="matrix(1 0 0 1.230769 40.00035 0.000047)" fill="rgba(0,0,0,0.4)" stroke-width="0"/><g transform="translate(-19.999993 29.999968)"><rect width="60" height="20" rx="0" ry="0" transform="translate(180.00001 110)" fill="rgba(0,0,0,0.2)" stroke-width="0"/><rect width="60" height="20" rx="0" ry="0" transform="translate(100.000384 110)" fill="rgba(0,0,0,0.2)" stroke-width="0"/><rect width="60" height="20" rx="0" ry="0" transform="translate(179.999992 0)" fill="rgba(0,0,0,0.2)" stroke-width="0"/><rect width="60" height="20" rx="0" ry="0" transform="translate(180.000001 29.999978)" fill="rgba(0,0,0,0.2)" stroke-width="0"/><rect width="60" height="20" rx="0" ry="0" transform="translate(100.00035 79.999957)" fill="rgba(0,0,0,0.2)" stroke-width="0"/><rect width="19.518736" height="40.6126" rx="0" ry="0" transform="matrix(3.07397 0 0 0.984916 180.000001 59.999957)" fill="rgba(0,0,0,0.2)" stroke-width="0"/><rect width="19.518736" height="40.6126" rx="0" ry="0" transform="matrix(3.07397 0 0 1.477373 100.000341 9.999999)" fill="rgba(0,0,0,0.2)" stroke-width="0"/></g></svg>
