<?xml version="1.0" encoding="UTF-8" standalone="no"?>
<!-- Created with Inkscape (http://www.inkscape.org/) -->

<svg
   xmlns="http://www.w3.org/2000/svg"
   xmlns:xlink="http://www.w3.org/1999/xlink"
   xmlns:inkscape="http://www.inkscape.org/namespaces/inkscape"
   width="210mm"
   height="297mm"
   viewBox="0 0 210 297"
   version="1.1">
  <defs />
  <g >
    <g >
      <path
         style="fill:#ececec;stroke-width:0.24514455"
         d="m 28.163815,225.02355 c -0.213456,-0.21346 -0.294549,-1.96721 -0.294549,-6.37 v -6.07544 l -6.312473,-0.0654 -6.312472,-0.0654 -0.0633,-25.37246 c -0.05897,-23.63612 -0.0348,-25.39343 0.353285,-25.67889 0.324564,-0.23874 4.492141,-0.30643 18.866296,-0.30643 H 52.85031 l 0.07478,-52.88994 c 0.04113,-29.089463 0.168917,-53.083866 0.283978,-53.320895 0.198918,-0.409783 3.827788,-0.430669 73.848162,-0.425033 l 73.63896,0.0059 v 78.937238 78.93725 l -0.58612,-0.14711 c -0.32236,-0.0809 -0.65982,-0.0278 -0.7499,0.1179 -0.11056,0.17889 -2.22904,0.26501 -6.51893,0.26501 h -6.35516 l -0.0654,6.31247 -0.0654,6.31247 -78.94843,0.0617 c -61.20198,0.0478 -79.014639,-0.005 -79.242977,-0.23289 z"
         inkscape:connector-curvature="0" />
      <path
         style="fill:#ebebeb;stroke-width:0.24514455"
         d="m 28.237109,218.7029 -0.180337,-6.37005 -6.283653,-0.0654 -6.283654,-0.0654 -0.06244,-25.19585 c -0.04963,-20.02707 6.61e-4,-25.22 0.245144,-25.31354 0.16917,-0.0647 8.636369,-0.19936 18.815997,-0.29918 l 18.508414,-0.18149 0.122573,-50.23446 0.122572,-50.234466 72.685365,0.0579 c 39.97695,0.03185 72.76125,0.133085 72.854,0.224975 0.22328,0.221207 0.32049,150.658771 0.0976,151.019431 -0.12179,0.19706 -2.00705,0.27926 -6.40517,0.27926 h -6.23258 l -0.0654,6.31247 -0.0654,6.31247 -78.84632,0.0617 -78.846318,0.0617 z"
         inkscape:connector-curvature="0" />
      <path
         style="fill:#dadada;stroke-width:0.24514455"
         d="m 28.237109,218.7029 -0.180337,-6.37005 -6.283653,-0.0654 -6.283654,-0.0654 -0.06244,-25.19585 c -0.04963,-20.02707 6.61e-4,-25.22 0.245144,-25.31354 0.16917,-0.0647 8.636369,-0.19936 18.815997,-0.29918 l 18.508414,-0.18149 0.122573,-50.25463 0.122572,-50.254634 6.479293,-0.06544 c 5.020156,-0.05071 6.523692,0.0045 6.676436,0.245145 0.108428,0.170823 0.198832,28.633457 0.200896,63.250299 l 0.0038,62.93971 25.188604,0.0624 25.188606,0.0624 v 6.49633 6.49633 l -28.559344,0.14862 c -15.707638,0.0817 -29.967891,0.16448 -31.689453,0.18386 l -3.130108,0.0352 0.0658,5.69961 0.0658,5.69961 h 37.507118 37.507117 l 0.0657,-5.94476 0.0656,-5.94475 h 22.66716 22.66715 l 0.0657,5.94475 0.0656,5.94476 5.81782,0.0657 5.81781,0.0657 0.0657,-5.94918 0.0657,-5.94918 h 6.49633 6.49633 l 0.0659,5.73024 c 0.0462,4.02105 -0.0175,5.83079 -0.21387,6.06733 -0.22392,0.2698 -1.52071,0.33709 -6.49679,0.33709 h -6.21703 l -0.0654,6.31247 -0.0654,6.31247 -78.84632,0.0617 -78.846317,0.0617 z M 141.91052,187.27091 c -0.21328,-0.21327 -0.29418,-1.99737 -0.29418,-6.4877 0,-5.87247 0.0246,-6.20669 0.47418,-6.4473 0.31651,-0.16939 7.617,-0.25377 21.95655,-0.25377 14.33955,0 21.64004,0.0844 21.95655,0.25377 0.4496,0.24061 0.47418,0.57483 0.47418,6.4473 0,4.49033 -0.0809,6.27443 -0.29418,6.4877 -0.42639,0.42639 -43.84671,0.42639 -44.2731,0 z M 78.970329,174.26294 c -0.06581,-0.1715 -0.09013,-3.12295 -0.05404,-6.55878 l 0.06562,-6.24697 h 25.004741 25.00475 v 6.49633 6.49633 l -24.95071,0.0625 c -20.009588,0.0501 -24.9744,7.4e-4 -25.070359,-0.24936 z m 62.940191,-12.7322 c -0.22084,-0.22084 -0.29418,-3.30227 -0.29418,-12.35975 0,-6.63607 0.067,-12.24007 0.1488,-12.45335 0.13416,-0.3496 2.31274,-0.38776 22.13656,-0.38776 16.77472,0 22.0575,0.0697 22.28192,0.29417 0.22092,0.22092 0.29418,3.33205 0.29418,12.49375 0,11.81046 -0.0151,12.20766 -0.47418,12.45334 -0.72635,0.38873 -43.70335,0.34935 -44.0931,-0.0404 z M 78.970329,149.2582 c -0.06581,-0.1715 -0.09013,-3.12295 -0.05404,-6.55878 l 0.06562,-6.24697 h 25.004741 25.00475 v 6.49633 6.49633 l -24.95071,0.0625 c -20.009588,0.0501 -24.9744,7.3e-4 -25.070359,-0.24936 z m 0.0025,-25.73596 c -0.06449,-0.16918 -0.0888,-11.44942 -0.05405,-25.067194 l 0.06318,-24.759599 h 25.004741 25.00475 v 25.004743 25.00474 l -24.95071,0.0624 c -19.831142,0.0496 -24.974755,-7.3e-4 -25.067923,-0.24514 z m 62.937741,-12.00099 c -0.21328,-0.21328 -0.29418,-1.99737 -0.29418,-6.48771 0,-5.904894 0.0224,-6.205536 0.48149,-6.451211 0.32889,-0.176018 7.36299,-0.23702 22.19456,-0.192485 18.98591,0.05701 21.74227,0.111387 21.94549,0.432918 0.35939,0.568625 0.30911,12.335118 -0.0543,12.698488 -0.42639,0.42639 -43.84671,0.42639 -44.2731,0 z m -0.0235,-25.782987 c -0.19647,-0.236734 -0.2601,-2.078142 -0.21387,-6.1899 l 0.0658,-5.852916 22.17031,-0.0626 c 17.57418,-0.04962 22.21081,0.0012 22.36569,0.245144 0.33263,0.523917 0.24796,11.563829 -0.0913,11.90308 -0.46424,0.464242 -43.91066,0.422256 -44.29663,-0.04281 z"
         inkscape:connector-curvature="0" />
      <path
         style="fill:#cbcbcb;stroke-width:0.24514455"
         d="m 28.454141,218.51459 -0.217158,-6.31248 -6.312473,-0.0654 -6.312472,-0.0654 V 186.9597 161.84813 l 6.435044,-0.15938 c 3.539275,-0.0877 11.950798,-0.17562 18.692273,-0.19547 l 12.257228,-0.0361 0.06188,-50.10765 c 0.04513,-36.542953 0.136205,-50.197213 0.336446,-50.438489 0.375388,-0.452313 12.217959,-0.486588 12.667882,-0.03666 0.227276,0.227277 0.294174,14.637853 0.294174,63.369859 v 63.07569 h 24.97473 c 20.884815,0 25.020505,0.0552 25.254315,0.33689 0.19663,0.23692 0.26009,2.11001 0.21387,6.31247 l -0.0657,5.97559 -31.450221,0.14526 c -19.930586,0.0921 -31.537887,0.23293 -31.689561,0.3846 -0.145932,0.14593 -0.213616,2.48105 -0.173427,5.98335 l 0.06591,5.74401 H 91.239135 128.9914 l 0.12257,-5.88347 0.12257,-5.88346 h 22.30816 22.30815 l 0.12257,5.88346 0.12258,5.88347 5.88347,0.12258 5.88347,0.12257 0.0655,6.1899 0.0655,6.1899 H 107.33361 28.671301 Z m 157.905919,-6.98662 c -0.0699,-0.30337 -0.0996,-2.92335 -0.066,-5.82219 l 0.0611,-5.2706 h 6.25119 6.25119 l 0.0611,5.2706 c 0.0336,2.89884 0.004,5.51882 -0.066,5.82219 l -0.12708,0.55157 h -6.11928 -6.11927 z m -44.25343,-30.70436 v -6.25118 h 21.94044 21.94044 v 6.25118 6.25119 h -21.94044 -21.94044 z m -62.891309,-6.80622 c -0.0659,-0.17172 -0.09022,-3.01287 -0.05404,-6.31364 l 0.06577,-6.00141 h 24.759599 24.7596 v 6.25118 6.25119 l -24.70556,0.0625 c -19.828644,0.0501 -24.729206,7.4e-4 -24.825369,-0.24978 z m 62.950329,-25.00128 0.0635,-12.31852 h 21.81787 21.81787 l 0.0636,12.31852 0.0635,12.31851 H 164.04707 142.1021 Z m -62.896573,0.14416 c -0.09053,-0.0905 -0.164598,-2.90198 -0.164598,-6.24768 v -6.08308 l 0.551575,-0.13329 c 0.303367,-0.0733 11.472766,-0.10299 24.820886,-0.066 l 24.26931,0.0673 v 6.25119 6.25119 l -24.65629,0.0624 c -13.560957,0.0344 -24.730356,-0.0116 -24.820883,-0.10215 z m -0.05117,-25.88317 c -0.06448,-0.16918 -0.08879,-11.3391 -0.05404,-24.822054 l 0.06319,-24.514455 h 24.759603 24.7596 v 24.759599 24.7596 l -24.70556,0.0625 c -19.63501,0.0496 -24.729617,-7.4e-4 -24.822786,-0.24515 z m 63.052153,-11.87025 c -0.0899,-0.0899 -0.16343,-2.95808 -0.16343,-6.37376 v -6.210328 h 21.94044 21.94044 v 6.224958 c 0,5.45021 -0.0483,6.24348 -0.38777,6.37376 -0.53143,0.20393 -43.1255,0.18955 -43.32968,-0.0146 z m -0.16343,-31.705362 v -5.883469 h 21.94044 21.94044 v 5.883469 5.883469 h -21.94044 -21.94044 z"
         inkscape:connector-curvature="0" />
      <path
         style="fill:#c4c4c4;stroke-width:0.24514455"
         d="m 28.696825,218.26944 -0.214698,-6.31247 -6.312472,-0.0654 -6.312473,-0.0654 V 186.94814 162.0701 h 5.991574 c 3.729948,0 6.048764,-0.0925 6.143082,-0.24514 0.09779,-0.15823 4.569835,-0.24514 12.613185,-0.24514 11.137276,0 12.477491,-0.0412 12.610477,-0.38777 0.08184,-0.21327 0.1488,-22.88301 0.1488,-50.37721 V 60.825358 h 6.373759 6.373758 v 63.018262 c 0,42.97128 0.08073,63.16911 0.253769,63.49244 0.248336,0.46402 0.786466,0.47417 25.127318,0.47417 h 24.873546 v 6.00376 6.00375 l -25.066029,0.11875 c -13.786317,0.0653 -27.961801,0.18023 -31.501076,0.25537 l -6.435045,0.13663 v 6.12144 6.12145 l 37.936121,-0.0621 37.936119,-0.0621 0.12257,-5.88347 0.12258,-5.88347 h 22.06301 22.06301 l 0.12257,5.88347 0.12257,5.88347 5.88347,0.12257 5.88347,0.12257 0.0657,5.94476 0.0656,5.94475 H 107.3313 28.911523 Z m 158.026115,-9.25421 v -2.57401 h 5.88347 5.88347 v 2.57401 2.57402 h -5.88347 -5.88347 z m 0,-6.00604 v -2.46016 l 5.94476,0.0657 5.94475,0.0656 v 2.32887 2.32888 l -5.94475,0.0656 -5.94476,0.0657 z m -44.37116,-22.18558 v -6.00604 h 21.69529 21.69529 v 6.00604 6.00604 h -21.69529 -21.69529 z m -62.891478,-7.05179 c -0.066,-0.17198 -0.09032,-2.90281 -0.05405,-6.06851 l 0.06594,-5.75583 h 24.514458 24.51446 v 6.00604 6.00604 l -24.46041,0.0625 c -19.648584,0.0502 -24.484019,9.9e-4 -24.580402,-0.25021 z m 62.891478,-24.69443 v -12.01208 h 21.69529 21.69529 v 12.01208 12.01209 h -21.69529 -21.69529 z m -62.837549,-0.16225 c -0.09053,-0.0905 -0.164607,-2.79378 -0.164607,-6.00722 v -5.84261 h 24.641386 24.64139 l -0.0656,5.94476 -0.0656,5.94475 -24.41114,0.0625 c -13.426121,0.0344 -24.485205,-0.0116 -24.575739,-0.10214 z m -0.05118,-25.88317 c -0.06448,-0.16919 -0.0888,-11.2288 -0.05405,-24.576924 l 0.06319,-24.26931 h 24.514449 24.51446 v 24.514454 24.51445 l -24.4604,0.0625 c -19.438884,0.0496 -24.484483,-7.3e-4 -24.577653,-0.24514 z m 62.888729,-17.95802 v -6.006043 h 21.69529 21.69529 v 6.006043 6.00604 h -21.69529 -21.69529 z m 0,-25.372462 v -5.638324 h 21.69529 21.69529 v 5.638324 5.638324 h -21.69529 -21.69529 z"
         inkscape:connector-curvature="0" />
      <path
         style="fill:#999999;stroke-width:0.24514455"
         d="m 40.535069,212.16126 c -0.08989,-0.0899 -0.163431,-2.71539 -0.163431,-5.83444 0,-4.08393 -0.08233,-5.75334 -0.294173,-5.96519 -0.211967,-0.21196 -1.890337,-0.29417 -6.006042,-0.29417 h -5.711868 v -19.12128 -19.12127 h 12.365332 c 8.63492,0 12.414991,-0.0803 12.529937,-0.26633 0.175636,-0.28419 0.262348,-19.10488 0.319251,-69.293434 l 0.03537,-31.194643 h 6.128614 6.128614 l 0.05906,63.002147 c 0.03248,34.65118 0.06006,65.89792 0.06129,69.43719 l 0.0022,6.43505 -6.373759,0.12257 -6.373758,0.12257 -0.133565,6.00604 c -0.07346,3.30332 -0.156196,6.03362 -0.183858,6.06733 -0.119346,0.14543 -12.241608,0.0455 -12.389236,-0.10214 z"
         inkscape:connector-curvature="0" />
      <path
         style="fill:#949494;stroke-width:0.24514455"
         d="m 40.861928,205.95955 c 0,-5.55739 -0.02562,-5.88855 -0.474174,-6.12861 -0.286674,-0.15343 -2.661586,-0.25377 -6.006042,-0.25377 h -5.531868 v -18.75356 -18.75356 h 12.208199 c 9.168407,0 12.281449,-0.0732 12.502373,-0.29417 0.222557,-0.22256 0.294173,-4.04216 0.294173,-15.68925 v -15.39508 l 2.512732,-0.003 c 1.382003,-0.002 2.760941,-0.0699 3.064307,-0.15117 l 0.551575,-0.14782 V 95.852437 61.315647 h 2.819163 2.819162 v 69.130763 69.13076 h -6.111103 c -5.228691,0 -6.166729,0.0556 -6.496331,0.38523 -0.328283,0.32828 -0.385228,1.23421 -0.385228,6.12861 v 5.74339 h -5.883469 -5.883469 z"
         inkscape:connector-curvature="0" />
    </g>
  </g>
</svg>
